<?xml version="1.0" encoding="iso-8859-1"?>
<!-- Generator: Adobe Illustrator 19.0.0, SVG Export Plug-In . SVG Version: 6.00 Build 0)  -->
<svg version="1.1" id="Layer_1" xmlns="http://www.w3.org/2000/svg" xmlns:xlink="http://www.w3.org/1999/xlink" x="0px" y="0px"
	 viewBox="0 0 512 512" style="enable-background:new 0 0 512 512;" xml:space="preserve">
<path style="fill:#0076CF;" d="M511.344,274.266C511.77,268.231,512,262.143,512,256C512,114.615,397.385,0,256,0S0,114.615,0,256
	c0,117.769,79.53,216.949,187.809,246.801L511.344,274.266z"/>
<path style="fill:#00477D;" d="M511.344,274.266L314.991,77.913L119.096,434.087l68.714,68.714C209.522,508.787,232.385,512,256,512
	C391.243,512,501.976,407.125,511.344,274.266z"/>
<polygon style="fill:#FFFFFF;" points="278.328,333.913 255.711,77.913 119.096,77.913 119.096,311.652 "/>
<polygon style="fill:#E8E6E6;" points="392.904,311.652 392.904,155.826 337.252,133.565 314.991,77.913 255.711,77.913 
	256.067,333.913 "/>
<polygon style="fill:#FFFFFF;" points="314.991,155.826 314.991,77.913 392.904,155.826 "/>
<rect x="119.096" y="311.652" style="fill:#FC6411;" width="273.809" height="122.435"/>
<g>
	<path style="fill:#FFFFFF;" d="M202.182,399.362l-9.838-36.629l-9.99,36.629h-13.925l-17.33-52.975h14.378l10.368,38.974
		l10.141-38.974h13.168l10.368,38.974l10.217-38.974h13.774l-17.483,52.975H202.182z"/>
	<path style="fill:#FFFFFF;" d="M286.496,399.362l-0.076-34.434l-12.714,29.136h-8.779l-12.714-29.136v34.434H240.18v-53.051h14.757
		l14.379,31.559l14.378-31.559h14.682v53.051H286.496z"/>
	<path style="fill:#FFFFFF;" d="M326.16,399.362l-20.585-52.975h14.378l13.547,38.974l13.547-38.974h13.848l-20.812,52.975H326.16z"
		/>
</g>
<g>
</g>
<g>
</g>
<g>
</g>
<g>
</g>
<g>
</g>
<g>
</g>
<g>
</g>
<g>
</g>
<g>
</g>
<g>
</g>
<g>
</g>
<g>
</g>
<g>
</g>
<g>
</g>
<g>
</g>
</svg>
